<svg xmlns="http://www.w3.org/2000/svg" viewBox="0 0 800 600" preserveAspectRatio="xMidYMid slice" role="img" aria-label="sagun-teak wood grain (illustration)">
<defs>
<filter id="g" filterUnits="userSpaceOnUse" x="0" y="0" width="800" height="600" color-interpolation-filters="sRGB">
<feTurbulence type="fractalNoise" baseFrequency="0.11 0.004" numOctaves="3" seed="8" result="a"/>
<feTurbulence type="fractalNoise" baseFrequency="0.55 0.02" numOctaves="2" seed="13" result="b"/>
<feComposite in="a" in2="b" operator="arithmetic" k1="0" k2=".7" k3=".3" k4="0" result="n"/>
<feColorMatrix in="n" type="matrix" values="0.734 0 0 0 0.321  0.755 0 0 0 0.127  0.591 0 0 0 -0.044  0 0 0 0 1" result="c"/>
<feComposite in="c" in2="SourceAlpha" operator="in"/>
</filter>
<linearGradient id="shade" x1="0" y1="0" x2="1" y2="1"><stop offset="0" stop-color="#fff" stop-opacity=".10"/><stop offset=".5" stop-color="#000" stop-opacity="0"/><stop offset="1" stop-color="#000" stop-opacity=".38"/></linearGradient>
</defs>
<rect width="800" height="600" fill="#000" filter="url(#g)"/>
<path d="M552 -20 C592 180 512 420 572 620" stroke="#000" stroke-opacity="0.14" stroke-width="1.7" fill="none"/>
<path d="M375 -20 C438 180 312 420 395 620" stroke="#000" stroke-opacity="0.17" stroke-width="2.8" fill="none"/>
<path d="M229 -20 C279 180 179 420 249 620" stroke="#000" stroke-opacity="0.08" stroke-width="2.2" fill="none"/>
<path d="M283 -20 C325 180 241 420 303 620" stroke="#000" stroke-opacity="0.09" stroke-width="3.7" fill="none"/>
<path d="M701 -20 C782 180 620 420 721 620" stroke="#000" stroke-opacity="0.19" stroke-width="1.9" fill="none"/>
<path d="M314 -20 C432 180 196 420 334 620" stroke="#000" stroke-opacity="0.19" stroke-width="3.6" fill="none"/>
<path d="M738 -20 C799 180 677 420 758 620" stroke="#000" stroke-opacity="0.16" stroke-width="2.4" fill="none"/>
<rect width="800" height="600" fill="url(#shade)"/>
</svg>
